<svg width="32" height="32" viewBox="0 0 32 32" fill="none" xmlns="http://www.w3.org/2000/svg">
    <!-- Fondo circular -->
    <circle cx="16" cy="16" r="16" fill="#3B82F6" />

    <!-- Micrófono -->
    <path
        d="M16 6C13.7909 6 12 7.79086 12 10V16C12 18.2091 13.7909 20 16 20C18.2091 20 20 18.2091 20 16V10C20 7.79086 18.2091 6 16 6Z"
        fill="white" />
    <rect x="15" y="20" width="2" height="4" fill="white" />
    <rect x="13" y="24" width="6" height="2" rx="1" fill="white" />

    <!-- Ondas de sonido -->
    <path d="M8 12C8 12 9 13 8 14C7 15 8 16 8 16" stroke="white" stroke-width="1.5"
        stroke-linecap="round" fill="none" />
    <path d="M24 12C24 12 23 13 24 14C25 15 24 16 24 16" stroke="white" stroke-width="1.5"
        stroke-linecap="round" fill="none" />
</svg>