<svg width="192" height="192" viewBox="0 0 192 192" fill="none" xmlns="http://www.w3.org/2000/svg">
    <!-- Fondo circular -->
    <circle cx="96" cy="96" r="96" fill="#7F64FC" />

    <!-- Micrófono -->
    <path
        d="M96 36C82.7452 36 72 46.7452 72 60V96C72 109.255 82.7452 120 96 120C109.255 120 120 109.255 120 96V60C120 46.7452 109.255 36 96 36Z"
        fill="white" />
    <rect x="90" y="120" width="12" height="24" fill="white" />
    <rect x="78" y="144" width="36" height="12" rx="6" fill="white" />

    <!-- Ondas de sonido -->
    <path d="M48 72C48 72 54 78 48 84C42 90 48 96 48 96" stroke="white" stroke-width="9"
        stroke-linecap="round" fill="none" />
    <path d="M144 72C144 72 138 78 144 84C150 90 144 96 144 96" stroke="white" stroke-width="9"
        stroke-linecap="round" fill="none" />
</svg>